<?xml version="1.0" encoding="utf-8"?> <!-- Generator: IcoMoon.io --> <!DOCTYPE svg PUBLIC "-//W3C//DTD SVG 1.1//EN" "http://www.w3.org/Graphics/SVG/1.1/DTD/svg11.dtd"> <svg width="32" height="32" viewBox="0 0 32 32" xmlns="http://www.w3.org/2000/svg" xmlns:xlink="http://www.w3.org/1999/xlink" fill="#000000"><g><path d="M 16,0C 7.163,0,0,7.163,0,16s 7.163,16, 16,16s 16-7.163, 16-16S 24.837,0, 16,0z M 10,24 c-1.105,0-2-0.895-2-2s 0.895-2, 2-2s 2,0.895, 2,2S 11.105,24, 10,24z M 15.5,24c0-4.136-3.365-7.5-7.5-7.5l0-3 c 5.79,0, 10.5,4.71, 10.5,10.5L 15.5,24 z M 21.5,24c0-3.606-1.404-6.996-3.954-9.546C 14.996,11.904, 11.606,10.5, 8,10.5l0-3 c 4.407,0, 8.551,1.716, 11.667,4.833C 22.784,15.449, 24.5,19.593, 24.5,24L 21.5,24 z"></path></g></svg>