<?xml version="1.0" encoding="utf-8"?> <!-- Generator: IcoMoon.io --> <!DOCTYPE svg PUBLIC "-//W3C//DTD SVG 1.1//EN" "http://www.w3.org/Graphics/SVG/1.1/DTD/svg11.dtd"> <svg width="32" height="32" viewBox="0 0 32 32" xmlns="http://www.w3.org/2000/svg" xmlns:xlink="http://www.w3.org/1999/xlink" fill="#000000"><g><path d="M 13.656,25.568 C 13.656,27.913 12.207,29.767 8.101,29.917 C 5.696,28.549 3.68,26.575 2.261,24.202 C 3.001,22.374 5.314,20.982 7.958,21.011 C 8.709,21.019 9.408,21.14 10.044,21.346 C 11.791,22.56 13.2,23.319 13.554,24.703 C 13.62,24.983 13.656,25.272 13.656,25.568 ZM 16,0C 11.377,0, 7.213,1.962, 4.292,5.097c 1.154-0.639, 2.517-1.020, 3.966-1.020c 2.096,0, 8.014,0, 8.014,0 L 14.48,5.956L 12.377,5.956 c 1.484,0.85, 2.273,2.602, 2.273,4.532c0,1.772-0.982,3.199-2.368,4.283 c-1.353,1.056-1.609,1.499-1.609,2.398c0,0.767, 1.616,1.909, 2.359,2.467c 2.588,1.941, 3.112,3.162, 3.112,5.59 c0,2.46-2.154,4.91-5.808,5.742C 12.097,31.634, 14.006,32, 16,32c 8.837,0, 16-7.163, 16-16S 24.837,0, 16,0z M 24,12l0,4 l-2,0 l0-4 l-4,0 l0-2 l 4,0 L 22,6 l 2,0 l0,4 l 4,0 l0,2 L 24,12 zM 11.43,10.608 C 11.803,13.445 10.56,15.271 8.401,15.206 C 6.241,15.141 4.188,13.16 3.815,10.324 C 3.443,7.487 4.891,5.316 7.051,5.38 C 9.21,5.445 11.058,7.772 11.43,10.608 ZM 6.903,20.065 C 4.569,20.065 2.586,20.87 1.189,22.060 C 0.423,20.191 0,18.145 0,16 C 0,14.226 0.289,12.52 0.822,10.925 C 1.053,14.033 3.24,16.431 6.853,16.431 C 7.119,16.431 7.376,16.417 7.63,16.399 C 7.381,16.875 7.204,17.405 7.204,17.961 C 7.204,18.898 7.719,19.432 8.356,20.052 C 7.875,20.052 7.41,20.065 6.903,20.065 Z"></path></g></svg>